<?xml version="1.0" standalone="no"?>
<!DOCTYPE svg PUBLIC "-//W3C//DTD SVG 20010904//EN"
 "http://www.w3.org/TR/2001/REC-SVG-20010904/DTD/svg10.dtd">
<svg version="1.0" xmlns="http://www.w3.org/2000/svg"
 width="840.000000pt" height="840.000000pt" viewBox="0 0 840.000000 840.000000"
 preserveAspectRatio="xMidYMid meet">
<metadata>
Created by potrace 1.11, written by Peter Selinger 2001-2013
</metadata>
<g transform="translate(0.000000,840.000000) scale(0.100000,-0.100000)"
fill="#000000" stroke="none">
<path d="M2907 8004 c-2 -2 -40 -6 -83 -9 -107 -6 -162 -13 -279 -36 -103 -21
-110 -22 -135 -31 -8 -3 -44 -14 -80 -23 -36 -10 -84 -26 -107 -36 -24 -11
-47 -19 -53 -19 -12 0 -187 -86 -256 -126 -47 -26 -164 -103 -174 -114 -3 -3
-34 -28 -70 -57 -66 -52 -215 -201 -260 -261 -14 -19 -30 -39 -35 -45 -27 -31
-105 -153 -105 -164 0 -7 -4 -13 -8 -13 -7 0 -85 -157 -122 -245 -14 -33 -59
-171 -65 -195 -1 -8 -8 -33 -13 -55 -12 -43 -16 -66 -33 -165 -16 -98 -20
-139 -23 -211 -2 -36 -6 -71 -10 -77 -3 -6 -2 -13 3 -16 4 -3 7 -20 4 -38 -6
-46 -6 -52 1 -163 6 -104 9 -133 21 -225 4 -30 9 -66 10 -80 14 -113 84 -398
141 -567 20 -59 37 -112 38 -118 2 -5 9 -26 18 -46 9 -20 19 -47 23 -60 6 -21
26 -69 72 -179 9 -19 26 -56 39 -82 13 -27 20 -48 17 -48 -3 0 1 -8 10 -17 8
-10 15 -22 15 -26 0 -7 97 -202 151 -303 7 -15 14 -31 15 -38 1 -6 13 -34 27
-61 51 -97 51 -96 -43 -64 -46 16 -144 47 -218 69 -74 23 -150 48 -169 56 -18
8 -36 12 -39 10 -3 -3 -11 -1 -19 5 -7 6 -13 8 -13 5 0 -4 -9 -2 -21 4 -11 6
-28 13 -37 15 -9 2 -73 21 -141 44 -69 22 -127 39 -129 36 -3 -3 -11 0 -18 5
-6 6 -20 13 -30 15 -21 4 -173 51 -269 83 -88 29 -130 33 -183 17 -74 -22
-127 -86 -137 -165 -7 -61 13 -119 60 -165 34 -34 57 -45 150 -73 61 -18 153
-47 205 -64 52 -17 100 -31 105 -32 6 -1 62 -18 125 -39 63 -20 183 -57 265
-82 83 -26 157 -49 165 -52 8 -3 20 -7 25 -8 6 -2 39 -12 75 -24 36 -11 139
-44 230 -71 91 -28 176 -55 190 -60 130 -45 275 -84 320 -86 41 -2 65 3 93 19
69 39 82 65 162 322 15 50 36 115 46 145 30 96 91 294 94 304 1 6 5 18 8 26 6
17 81 258 104 335 8 28 22 70 31 95 9 25 17 47 17 50 3 20 18 77 23 85 4 6 7
15 8 22 2 13 32 108 41 133 8 18 7 15 22 70 7 25 12 45 12 45 -1 0 12 37 28
83 16 45 28 82 26 82 -1 0 3 19 10 43 41 136 -67 267 -209 252 -93 -9 -151
-67 -185 -183 -13 -42 -28 -90 -34 -107 -7 -16 -12 -33 -13 -37 -1 -5 -2 -9
-4 -10 -1 -2 -3 -10 -5 -19 -3 -18 -107 -354 -140 -454 -13 -38 -33 -104 -45
-145 -11 -41 -25 -84 -30 -95 -4 -11 -30 -91 -56 -177 -26 -87 -50 -158 -53
-158 -6 0 -66 117 -66 128 0 4 -41 88 -91 187 -50 99 -119 248 -154 330 -34
83 -66 159 -71 170 -5 11 -27 76 -50 145 -22 69 -42 131 -44 138 -3 7 -5 14
-5 17 -1 3 -6 19 -12 37 -5 18 -14 49 -18 68 -19 80 -39 168 -44 201 -3 19 -8
45 -11 59 -3 14 -8 48 -11 75 -3 28 -8 57 -11 65 -9 24 -11 409 -3 470 17 118
21 146 25 160 2 8 7 30 10 49 3 19 8 38 11 43 3 4 7 16 9 25 20 89 40 141 93
253 29 60 103 185 113 188 5 2 9 8 9 14 0 5 6 15 12 23 7 7 24 28 38 46 33 43
156 166 204 204 185 146 464 274 671 309 17 3 39 7 50 9 34 8 137 19 200 23
33 1 62 4 65 5 3 1 9 1 14 0 5 -1 61 -4 125 -6 64 -3 127 -7 141 -10 14 -3 41
-8 60 -11 29 -3 98 -17 145 -29 6 -1 13 -3 17 -4 51 -11 251 -91 325 -131 234
-125 403 -279 537 -489 54 -83 138 -256 142 -291 2 -8 11 -39 22 -67 11 -29
19 -53 17 -53 -2 0 2 -21 10 -47 8 -26 12 -49 10 -51 -2 -2 0 -14 5 -27 8 -20
15 -72 26 -190 2 -22 4 -47 4 -55 0 -8 1 -33 1 -55 0 -22 0 -56 0 -75 1 -49
-10 -208 -17 -250 -3 -19 -7 -51 -10 -70 -6 -52 -41 -235 -44 -235 -1 0 -3 -7
-5 -15 -2 -8 -6 -26 -9 -40 -27 -123 -124 -416 -182 -547 -8 -18 -20 -48 -28
-65 -66 -153 -152 -329 -224 -460 -215 -385 -397 -823 -491 -1178 -36 -137
-73 -311 -67 -318 3 -2 1 -14 -4 -26 -4 -13 -11 -47 -15 -77 -3 -30 -8 -71
-11 -92 -12 -90 -18 -316 -9 -326 2 -2 0 -11 -5 -21 -5 -10 -6 -20 -3 -24 4
-3 8 -37 10 -74 1 -37 8 -101 14 -142 16 -111 14 -102 33 -197 31 -152 168
-496 211 -525 5 -4 7 -8 3 -8 -16 0 133 -206 212 -293 94 -105 310 -287 339
-287 6 0 11 -4 11 -9 0 -5 15 -16 33 -25 17 -10 52 -30 77 -46 25 -16 53 -29
63 -29 9 -1 17 -5 17 -10 0 -5 8 -11 18 -14 9 -3 62 -24 117 -48 140 -58 297
-105 425 -125 19 -3 42 -7 50 -9 29 -8 146 -18 222 -19 43 -1 78 -3 78 -6 0
-3 14 -5 30 -5 17 0 30 2 30 5 0 3 35 5 78 6 42 0 104 3 137 7 75 9 260 42
260 47 0 1 11 4 25 7 103 20 256 76 400 146 63 31 228 128 260 153 8 7 49 39
90 72 126 99 312 298 333 355 3 9 11 17 17 17 5 0 10 4 10 9 0 5 18 38 40 72
51 83 142 271 155 319 0 3 9 30 20 60 10 30 18 56 17 57 -1 2 5 20 12 41 42
119 78 387 78 586 0 87 -9 268 -16 301 -2 11 -7 49 -11 85 -4 36 -9 68 -11 71
-2 4 -6 26 -9 50 -3 24 -13 75 -21 112 -9 38 -18 76 -19 86 -2 9 -4 16 -5 16
-1 0 -3 9 -4 20 -9 61 -113 382 -178 545 -97 243 -275 609 -315 646 -14 13
-22 24 -17 24 4 0 105 -27 224 -61 118 -34 220 -62 225 -64 6 -1 17 -4 25 -7
15 -6 678 -195 715 -204 11 -3 25 -6 30 -8 108 -31 159 -24 227 29 60 48 85
155 54 229 -28 68 -80 103 -197 135 -80 21 -283 79 -389 111 -54 16 -131 38
-162 46 -5 1 -9 2 -10 4 -2 1 -10 3 -18 5 -8 1 -64 17 -125 35 -60 17 -117 33
-125 35 -8 2 -49 14 -90 25 -41 12 -86 24 -99 26 -14 3 -29 7 -33 10 -5 3 -57
19 -116 36 -59 16 -123 34 -142 39 -19 6 -48 14 -65 18 -16 5 -88 25 -160 46
-165 47 -177 49 -235 35 -53 -13 -114 -63 -132 -109 -10 -26 -136 -461 -143
-492 -5 -23 -45 -161 -52 -179 -3 -8 -7 -22 -8 -30 -2 -8 -15 -55 -29 -105
-15 -49 -29 -101 -32 -114 -3 -14 -7 -28 -10 -33 -3 -4 -7 -16 -9 -26 -1 -9
-9 -37 -16 -62 -7 -25 -13 -48 -15 -52 -1 -5 -2 -9 -4 -10 -1 -2 -3 -10 -5
-18 -2 -8 -13 -49 -25 -90 -12 -41 -23 -79 -24 -85 -1 -5 -8 -30 -15 -55 -7
-25 -14 -52 -16 -60 -2 -8 -10 -37 -19 -65 -20 -65 -59 -197 -62 -210 -1 -5
-7 -28 -12 -50 -33 -120 2 -207 105 -259 66 -33 172 -12 226 46 20 20 55 94
60 124 1 10 6 25 10 32 5 6 6 12 2 12 -3 0 -1 8 4 18 6 11 12 30 15 43 2 13
34 128 70 254 37 127 68 237 71 245 2 8 33 119 70 245 78 272 68 237 85 308 7
31 16 57 20 57 6 0 37 -52 64 -107 6 -13 16 -23 21 -23 14 -1 143 -272 235
-495 13 -31 77 -210 81 -223 1 -4 6 -18 11 -32 5 -14 11 -32 13 -41 2 -9 8
-34 15 -55 22 -77 52 -189 55 -209 2 -11 6 -31 9 -45 59 -261 73 -593 36 -813
-6 -34 -13 -75 -16 -92 -19 -112 -90 -305 -155 -420 -57 -101 -59 -103 -119
-180 -137 -176 -325 -324 -532 -420 -74 -34 -236 -92 -273 -98 -11 -1 -26 -6
-32 -10 -7 -5 -13 -6 -13 -3 0 2 -15 0 -32 -5 -18 -5 -51 -12 -73 -15 -22 -3
-69 -9 -105 -13 -69 -9 -388 -6 -430 4 -14 3 -38 8 -55 10 -66 10 -240 54
-290 75 -316 131 -499 262 -663 475 -26 33 -50 61 -54 63 -4 2 -8 7 -8 12 0 4
-17 37 -38 71 -43 73 -63 113 -115 244 -17 40 -57 189 -64 235 -2 14 -6 39 -8
55 -3 17 -7 44 -10 60 -3 17 -7 113 -9 215 -3 168 1 235 20 370 3 25 8 55 9
67 2 12 6 34 9 50 12 52 17 78 22 103 10 50 60 238 72 270 3 8 6 17 7 20 1 3
4 12 7 20 3 8 13 40 23 70 29 88 106 284 116 295 5 5 9 16 9 23 0 8 40 96 88
196 49 100 89 185 89 190 1 5 5 12 10 15 8 5 47 77 113 206 14 28 28 52 33 53
4 2 7 12 7 23 0 10 5 19 10 19 6 0 10 9 10 20 0 11 5 20 10 20 6 0 10 5 10 10
0 6 20 52 44 103 49 103 95 210 133 307 23 61 102 283 107 305 2 6 6 17 9 25
6 14 44 155 52 193 2 10 7 27 10 37 3 10 8 29 10 42 3 13 9 46 15 73 5 28 12
64 15 80 3 17 7 39 9 50 2 12 7 48 11 80 4 33 9 68 11 78 6 34 16 221 16 297
0 82 -10 266 -17 290 -2 8 -6 37 -10 64 -3 28 -13 82 -22 120 -8 39 -18 85
-21 101 -2 17 -8 35 -12 40 -4 6 -11 26 -16 45 -4 19 -8 37 -9 40 -1 3 -9 22
-18 44 -9 21 -17 42 -17 45 0 4 -8 25 -19 47 -10 21 -27 57 -37 79 -65 143
-207 345 -327 465 -86 87 -155 150 -164 150 -3 0 -20 12 -38 28 -58 49 -75 62
-82 62 -3 0 -29 15 -57 34 -96 63 -330 175 -401 191 -5 2 -39 12 -75 24 -126
42 -339 79 -492 86 -43 2 -81 6 -86 9 -4 2 -14 1 -21 -4 -8 -4 -26 -4 -42 0
-15 5 -29 6 -32 4z"/>
</g>
</svg>
