<svg width="105" height="96" viewBox="0 0 105 96" fill="none" xmlns="http://www.w3.org/2000/svg">
<path d="M22.0133 48C-10.9867 -12 85.0133 -12 52.0133 48C19.0133 108 115.013 108 82.0133 48" stroke="#F2C94C" stroke-width="5"/>
<path d="M24.8801 57.5156C26.1981 57.9268 27.6 57.1915 28.0111 55.8735L34.7112 34.3942C35.1224 33.0761 34.3872 31.6743 33.0691 31.2632C31.751 30.852 30.3492 31.5872 29.9381 32.9053L23.9824 51.998L4.88972 46.0423C3.57165 45.6312 2.16983 46.3664 1.75868 47.6844C1.34753 49.0025 2.08273 50.4043 3.40081 50.8155L24.8801 57.5156ZM19.6716 49.1612L23.4105 56.2902L27.8385 53.9679L24.0996 46.8388L19.6716 49.1612Z" fill="#F2C94C"/>
<path d="M79.4399 40.1037C78.112 39.7255 76.7289 40.4956 76.3509 41.8235L70.1898 63.4636C69.8117 64.7915 70.5817 66.1745 71.9097 66.5526C73.2376 66.9307 74.6206 66.1606 74.9986 64.8327L80.4752 45.5971L99.7108 51.0737C101.039 51.4517 102.422 50.6817 102.8 49.3538C103.178 48.0259 102.408 46.6429 101.08 46.2648L79.4399 40.1037ZM84.8556 48.3253L80.9397 41.2919L76.5711 43.7242L80.487 50.7576L84.8556 48.3253Z" fill="#F2C94C"/>
</svg>
