<svg width="350" height="108" viewBox="0 0 350 108" fill="none" xmlns="http://www.w3.org/2000/svg">
<path d="M1.375 80V76.0312L6.15625 75.1562V38.0312L1.0625 37.1562V33.1875H11.4375L12 37.3125C14.3125 34.1458 17.5521 32.5625 21.7188 32.5625C24.5104 32.5625 26.8958 33.3229 28.875 34.8438C30.8542 36.3438 32.3646 38.4583 33.4062 41.1875C34.4479 43.8958 34.9688 47.0729 34.9688 50.7188V51.375C34.9688 54.625 34.4375 57.4688 33.375 59.9062C32.3333 62.3438 30.8333 64.25 28.875 65.625C26.9167 66.9792 24.5625 67.6562 21.8125 67.6562C17.7083 67.6562 14.5417 66.2708 12.3125 63.5V75.1562L17.6875 76.0312V80H1.375ZM19.9062 62.8438C22.8229 62.8438 25.0312 61.7812 26.5312 59.6562C28.0312 57.5312 28.7812 54.7708 28.7812 51.375V50.7188C28.7812 46.8646 28.0312 43.7083 26.5312 41.25C25.0312 38.7917 22.8021 37.5625 19.8438 37.5625C18.0938 37.5625 16.5938 37.9583 15.3438 38.75C14.0938 39.5417 13.0833 40.625 12.3125 42V58.4688C13.0833 59.8646 14.0833 60.9479 15.3125 61.7188C16.5625 62.4688 18.0938 62.8438 19.9062 62.8438ZM39.6875 67V63.0625L44.7812 62.1875V38.0312L39.6875 37.1562V33.1875H50.2812L50.8125 37.5L50.875 38.0938C51.8333 36.3646 53.0104 35.0104 54.4062 34.0312C55.8229 33.0521 57.4375 32.5625 59.25 32.5625C59.8958 32.5625 60.5521 32.625 61.2188 32.75C61.9062 32.8542 62.3958 32.9583 62.6875 33.0625L61.875 38.7812L57.5938 38.5312C55.9688 38.4271 54.6042 38.8021 53.5 39.6562C52.3958 40.4896 51.5417 41.6146 50.9375 43.0312V62.1875L56.0312 63.0625V67H39.6875ZM81.2188 67.6562C78.0938 67.6562 75.375 66.9479 73.0625 65.5312C70.75 64.0938 68.9583 62.1042 67.6875 59.5625C66.4375 57.0208 65.8125 54.0833 65.8125 50.75V49.375C65.8125 46.1667 66.4688 43.3021 67.7812 40.7812C69.1146 38.2396 70.875 36.2396 73.0625 34.7812C75.2708 33.3021 77.6771 32.5625 80.2812 32.5625C84.8229 32.5625 88.2604 33.9375 90.5938 36.6875C92.9479 39.4375 94.125 43.1042 94.125 47.6875V51.5312H72.1875L72.0938 51.6875C72.1562 54.9375 72.9792 57.6146 74.5625 59.7188C76.1458 61.8021 78.3646 62.8438 81.2188 62.8438C83.3021 62.8438 85.125 62.5521 86.6875 61.9688C88.2708 61.3646 89.6354 60.5417 90.7812 59.5L93.1875 63.5C91.9792 64.6667 90.375 65.6562 88.375 66.4688C86.3958 67.2604 84.0104 67.6562 81.2188 67.6562ZM72.375 46.7188H87.9688V45.9062C87.9688 43.4896 87.3229 41.4688 86.0312 39.8438C84.7396 38.2188 82.8229 37.4062 80.2812 37.4062C78.2188 37.4062 76.4583 38.2812 75 40.0312C73.5417 41.7604 72.6458 43.9375 72.3125 46.5625L72.375 46.7188ZM113.812 67.6562C110.146 67.6562 107.281 66.4792 105.219 64.125C103.156 61.7708 102.125 58.1042 102.125 53.125V38.0312L98.25 37.1562V33.1875H108.281V53.1875C108.281 56.7917 108.812 59.2708 109.875 60.625C110.938 61.9792 112.594 62.6562 114.844 62.6562C117.031 62.6562 118.833 62.2188 120.25 61.3438C121.688 60.4479 122.771 59.1875 123.5 57.5625V38.0312L118.969 37.1562V33.1875H129.656V62.1875L133.531 63.0625V67H124.125L123.719 62C122.656 63.8125 121.281 65.2083 119.594 66.1875C117.927 67.1667 116 67.6562 113.812 67.6562ZM138.312 67V62.6875L156.719 37.9375H144.125L143.344 43.625H138.719V33.1875H164.344V37.375L145.75 62.3125H160.156L160.969 56.5938H165.562V67H138.312ZM170.125 67V63.0625L175.219 62.1875V38.0312L170.125 37.1562V33.1875H180.75L181.156 37.5938C182.24 35.9896 183.635 34.75 185.344 33.875C187.052 33 189.031 32.5625 191.281 32.5625C193.531 32.5625 195.458 33.0833 197.062 34.125C198.688 35.1667 199.906 36.7292 200.719 38.8125C201.781 36.8958 203.188 35.375 204.938 34.25C206.688 33.125 208.729 32.5625 211.062 32.5625C214.521 32.5625 217.25 33.75 219.25 36.125C221.25 38.4792 222.25 42.0312 222.25 46.7812V62.1875L227.344 63.0625V67H210.969V63.0625L216.062 62.1875V46.7188C216.062 43.3854 215.49 41.0312 214.344 39.6562C213.198 38.2604 211.5 37.5625 209.25 37.5625C207.104 37.5625 205.375 38.3229 204.062 39.8438C202.771 41.3438 202.021 43.2396 201.812 45.5312V62.1875L206.906 63.0625V67H190.562V63.0625L195.656 62.1875V46.7188C195.656 43.5521 195.062 41.2396 193.875 39.7812C192.708 38.3021 191.01 37.5625 188.781 37.5625C186.906 37.5625 185.365 37.9479 184.156 38.7188C182.948 39.4896 182.021 40.5729 181.375 41.9688V62.1875L186.469 63.0625V67H170.125ZM231.719 67V63.0625L236.812 62.1875V38.0312L231.719 37.1562V33.1875H242.969V62.1875L248.062 63.0625V67H231.719ZM236.5 24.8438V18.25H242.969V24.8438H236.5ZM252.938 67V63.0625L258.031 62.1875V26.3438L252.938 25.4688V21.5H266.25L280.906 56.0312H281.094L295.281 21.5H309V25.4688L303.906 26.3438V62.1875L309 63.0625V67H292.656V63.0625L298.031 62.1875V29.9062L297.875 29.875L283.094 65.375H279L263.719 29.9375L263.562 29.9688L263.781 49V62.1875L269.281 63.0625V67H252.938ZM329.656 67.6562C326.531 67.6562 323.812 66.9479 321.5 65.5312C319.188 64.0938 317.396 62.1042 316.125 59.5625C314.875 57.0208 314.25 54.0833 314.25 50.75V49.375C314.25 46.1667 314.906 43.3021 316.219 40.7812C317.552 38.2396 319.312 36.2396 321.5 34.7812C323.708 33.3021 326.115 32.5625 328.719 32.5625C333.26 32.5625 336.698 33.9375 339.031 36.6875C341.385 39.4375 342.562 43.1042 342.562 47.6875V51.5312H320.625L320.531 51.6875C320.594 54.9375 321.417 57.6146 323 59.7188C324.583 61.8021 326.802 62.8438 329.656 62.8438C331.74 62.8438 333.562 62.5521 335.125 61.9688C336.708 61.3646 338.073 60.5417 339.219 59.5L341.625 63.5C340.417 64.6667 338.812 65.6562 336.812 66.4688C334.833 67.2604 332.448 67.6562 329.656 67.6562ZM320.812 46.7188H336.406V45.9062C336.406 43.4896 335.76 41.4688 334.469 39.8438C333.177 38.2188 331.26 37.4062 328.719 37.4062C326.656 37.4062 324.896 38.2812 323.438 40.0312C321.979 41.7604 321.083 43.9375 320.75 46.5625L320.812 46.7188Z" fill="#545454"/>
<path d="M281 59L265.412 21.5L296.588 21.5L281 59Z" fill="#F2C94C"/>
<rect x="275" y="4" width="12" height="30" fill="#F2C94C"/>
</svg>
